# xmcd
#
# Track frame offsets: 
#        150
#        18834
#        39564
#        61266
#        73947
#        94356
#        110817
#        133320
#        146934
#        167310
#        191214
#        212010
#        221772
#        241917
#
# Disc length: 3450 seconds
#
# Revision: 0
# Processed by: cddbd v1.5.2PL0 Copyright (c) Steve Scherf et al.
# Submitted via: ExactAudioCopy v0.99pb4
#
DISCID=dd0d780e
DTITLE=Muusik Seif - Muusik Seif
DYEAR=2009
DGENRE=Rock
TTITLE0=Kuldaja Rock'n'Roll
TTITLE1=Kallid külalised
TTITLE2=Olen valind tee
TTITLE3=Doktor aita
TTITLE4=Valeühendus
TTITLE5=Lekkiv paat
TTITLE6=Blues üksinduses
TTITLE7=Pühendus
TTITLE8=Rong
TTITLE9=Gordioni sõlmed
TTITLE10=Eksterritoriaal
TTITLE11=Kus jäi see maa
TTITLE12=Unemuinasjutt
TTITLE13=Kuldaja Rock'n'Roll
EXTD=
EXTT0=
EXTT1=
EXTT2=
EXTT3=
EXTT4=
EXTT5=
EXTT6=
EXTT7=
EXTT8=
EXTT9=
EXTT10=
EXTT11=
EXTT12=
EXTT13=
PLAYORDER=
